<svg width="16" height="16" viewBox="0 0 16 16" fill="none" xmlns="http://www.w3.org/2000/svg"><g fill="#000"><path d="M9.462 4.66c0 .742-.654 1.343-1.462 1.343-.808 0-1.462-.601-1.462-1.344 0-.742.654-1.344 1.462-1.344.808 0 1.462.602 1.462 1.344ZM10.681 9.565c0 1.04-1.2 1.075-2.681 1.075-1.48 0-2.681-.036-2.681-1.075 0-1.04.67-2.755 2.681-2.755 2.01 0 2.681 1.716 2.681 2.755ZM4.1 7.952c.808 0 1.463-.602 1.463-1.344 0-.742-.655-1.344-1.463-1.344-.807 0-1.462.602-1.462 1.344 0 .742.655 1.344 1.462 1.344ZM13.362 6.608c0 .742-.655 1.344-1.462 1.344-.808 0-1.463-.602-1.463-1.344 0-.742.655-1.344 1.463-1.344.807 0 1.462.602 1.462 1.344Z"/><path fill-rule="evenodd" clip-rule="evenodd" d="M8 15.012c4.32 0 7.822-3.142 7.822-7.017 0-2.186-1.114-4.139-2.86-5.425C11.637 1.579 9.901.978 8 .978c-1.902 0-3.638.6-4.961 1.592C1.292 3.856.178 5.809.178 7.995c0 3.875 3.502 7.017 7.822 7.017Zm0-1.553c4.034 0 7.222-2.772 7.222-6.097 0-3.325-3.188-6.097-7.222-6.097-4.034 0-7.222 2.772-7.222 6.097 0 3.325 3.188 6.097 7.222 6.097Z"/></g></svg>